<?xml version="1.0" encoding="utf-8"?>
<svg version="1.1" id="Layer_1" x="0px" y="0px" width="608px" height="168.057px" viewBox="1.931 451.5 133.463 167.712" enable-background="new 4 451.5 608 168.057" xmlns="http://www.w3.org/2000/svg">
  <path fill="none" stroke-width="10" stroke-miterlimit="10" d="M114.212,518.14h10.454 c0,0-1.387-46.563-47.336-55.896v30.321H60.316v-30.321C14.367,471.577,12.98,518.14,12.98,518.14h10.454 c-15.388,0-15.867,17.067-15.867,17.067h122.538c0,0-0.453-17.067-15.867-17.067H114.212z" stroke="#F4F5F6"/>
  <rect x="61.316" y="455.363" fill="none" stroke-width="7" stroke-miterlimit="10" width="15.528" height="36.762" stroke="#F4F5F6"/>
  <path fill="#F4F5F6" d="M128.421,535.528H86.577c0.735,4.152,1.104,8.986,1.104,14.506c0,15.387-1.439,25.947-4.346,31.734 c-2.908,5.787-7.682,8.667-14.295,8.667v-0.026c-12.373,0-18.561-11.895-18.561-35.709c0-7.503,0.567-13.887,1.693-19.172H9.95 c-0.38,1.807-0.705,3.657-0.961,5.563c-0.536,3.976-0.804,8.174-0.804,12.622c0,20.001,5.68,35.948,17.014,47.896 c11.361,11.921,26.027,17.895,44.029,17.895v0.053c17.867,0,32.48-6.134,43.788-18.374c11.308-12.268,16.96-29.228,16.96-48.855 c0-4.102-0.244-8.031-0.734-11.789C129.02,538.832,128.744,537.163,128.421,535.528z" style=""/>
</svg>