<?xml version="1.0" encoding="UTF-8"?>
<svg id="Layer_1" data-name="Layer 1" xmlns="http://www.w3.org/2000/svg" viewBox="0 0 49.03 62.89">
  <defs>
    <style>
      .cls-1, .cls-2 {
        fill: #fff;
      }

      .cls-1, .cls-3 {
        stroke: #231f20;
        stroke-miterlimit: 10;
        stroke-width: 3px;
      }

      .cls-3 {
        fill: none;
      }

      .cls-4 {
        fill: #F4F5F6;
      }
    </style>
  </defs>
  <path class="cls-4" d="m24.57,62.89c-6.75,0-12.25-2.24-16.51-6.71-4.25-4.48-6.38-10.46-6.38-17.96s2.03-13.1,6.1-17.77c4.07-4.68,9.71-7.01,16.93-7.01,6.68,0,12.12,2.2,16.33,6.61,4.21,4.41,6.31,10.29,6.31,17.65s-2.12,13.72-6.36,18.32c-4.24,4.59-9.72,6.89-16.42,6.89Zm-.07-10.9c2.48,0,4.27-1.08,5.36-3.25,1.09-2.17,1.63-6.13,1.63-11.9,0-8.34-2.24-12.52-6.71-12.52-4.83,0-7.24,4.76-7.24,14.27,0,8.93,2.32,13.39,6.96,13.39Z"/>
  <path class="cls-1" d="m41.55,26.13h3.92s-.52-17.46-17.75-20.96v11.37h-6.38V5.17C4.09,8.67,3.57,26.13,3.57,26.13h3.92c-5.77,0-5.95,6.4-5.95,6.4h45.95s-.17-6.4-5.95-6.4Z"/>
  <polyline class="cls-3" points="27.72 9.2 27.72 1.5 21.34 1.5 21.34 9.2"/>
  <rect class="cls-2" x="22.4" y="2.56" width="4.26" height="11.35"/>
</svg>