<?xml version="1.0" encoding="utf-8"?>
<!-- Generator: Adobe Illustrator 16.0.0, SVG Export Plug-In . SVG Version: 6.00 Build 0)  -->
<!DOCTYPE svg PUBLIC "-//W3C//DTD SVG 1.1//EN" "http://www.w3.org/Graphics/SVG/1.1/DTD/svg11.dtd">
<svg version="1.1" id="Layer_1" xmlns="http://www.w3.org/2000/svg" xmlns:xlink="http://www.w3.org/1999/xlink" x="0px" y="0px"
	 width="608px" height="168.057px" viewBox="4 451.5 608 168.057" enable-background="new 4 451.5 608 168.057"
	 xml:space="preserve">
<path d="M187.208,548.514v71.069h-35.255v-71.069h-14.24v-24.295h14.24c0-7.867,0.347-13.707,1.04-17.494s2.4-7.413,5.147-10.88
	c2.747-3.467,6.427-6.134,11.067-7.974c4.613-1.841,10.854-2.773,18.667-2.773c8.374,0,16.4,0.666,24.107,1.973v24.481
	c-5.947-0.8-10.374-1.227-13.307-1.227s-5.627,0.587-8.054,1.786c-2.427,1.2-3.653,4.107-3.653,8.721v3.387h24.375v24.295h-24.108
	H187.208z"/>
<path d="M266.332,548.514v71.069h-35.255v-71.069h-14.241v-24.295h14.241c0-7.867,0.347-13.707,1.04-17.494s2.4-7.413,5.147-10.88
	s6.427-6.134,11.067-7.974c4.613-1.841,10.854-2.773,18.667-2.773c8.374,0,16.401,0.666,24.108,1.973v24.481
	c-5.947-0.8-10.374-1.227-13.307-1.227s-5.627,0.587-8.054,1.786c-2.427,1.2-3.653,4.107-3.653,8.721v3.387h24.374v24.295h-24.107
	H266.332z"/>
<path d="M338.708,487.551v29.628h-37.415v-29.628H338.708z M338.708,524.219v95.338h-37.415v-95.338H338.708z"/>
<path d="M415.885,581.128l31.868,2.721c-1.493,11.12-6.188,20.188-14.027,27.201c-7.841,6.986-18.268,10.507-31.255,10.507
	c-14.561,0-26.401-4.587-35.495-13.734c-9.094-9.146-13.653-20.881-13.653-35.201s4.507-26.668,13.547-36.135
	c9.041-9.468,20.774-14.214,35.202-14.214c12.8,0,23.254,3.573,31.308,10.747c8.054,7.146,12.694,16.214,13.867,27.147
	l-32.722,2.721c-1.387-10.055-5.2-15.095-11.44-15.095c-4,0-6.934,1.841-8.773,5.494s-2.773,10.026-2.773,19.067
	c0,7.813,0.934,13.601,2.773,17.334c1.84,3.76,5.04,5.627,9.601,5.627c6.693,0,10.667-4.721,11.894-14.161L415.885,581.128z"/>
<path d="M496.208,487.551v29.628h-37.415v-29.628H496.208z M496.208,524.219v95.338h-37.415v-95.338H496.208z"/>
<path d="M612,619.557h-35.628c-0.88-4.054-1.307-8.507-1.307-13.308c-6.747,10.188-16.961,15.28-30.668,15.28
	c-11.254,0-19.682-2.88-25.255-8.613c-5.601-5.76-8.4-12.347-8.4-19.787c0-10.054,4.587-18.215,13.734-24.428
	c9.146-6.214,25.388-9.947,48.695-11.201v-2.16c0-4.187-0.96-6.96-2.854-8.347c-1.92-1.387-4.693-2.054-8.4-2.054
	c-8.614,0-13.44,3.467-14.428,10.4l-34.135-3.2c4.881-19.947,21.468-29.895,49.789-29.895c7.681,0,14.747,0.773,21.201,2.294
	c6.427,1.52,11.521,3.92,15.28,7.174c3.761,3.253,6.267,6.693,7.547,10.32s1.92,10.587,1.92,20.907v38.055
	C609.093,608.249,610.053,614.437,612,619.557L612,619.557z M573.198,574.941c-15.947,1.68-23.895,6.773-23.895,15.28
	c0,5.761,3.147,8.613,9.468,8.613c4,0,7.413-1.173,10.213-3.573c2.801-2.373,4.214-7.627,4.214-15.761v-4.587V574.941z"/>
<path fill="none" stroke="#000000" stroke-width="10" stroke-miterlimit="10" d="M114.212,518.14h10.454
	c0,0-1.387-46.563-47.336-55.896v30.321H60.316v-30.321C14.367,471.577,12.98,518.14,12.98,518.14h10.454
	c-15.388,0-15.867,17.067-15.867,17.067h122.538c0,0-0.453-17.067-15.867-17.067H114.212z"/>
<rect x="61.316" y="455.363" fill="none" stroke="#000000" stroke-width="7" stroke-miterlimit="10" width="15.528" height="36.762"/>
<path fill="#FFFFFF" d="M37.75,544.625"/>
<path d="M128.421,535.528H86.577c0.735,4.152,1.104,8.986,1.104,14.506c0,15.387-1.439,25.947-4.346,31.734
	c-2.908,5.787-7.682,8.667-14.295,8.667v-0.026c-12.373,0-18.561-11.895-18.561-35.709c0-7.503,0.567-13.887,1.693-19.172H9.95
	c-0.38,1.807-0.705,3.657-0.961,5.563c-0.536,3.976-0.804,8.174-0.804,12.622c0,20.001,5.68,35.948,17.014,47.896
	c11.361,11.921,26.027,17.895,44.029,17.895v0.053c17.867,0,32.48-6.134,43.788-18.374c11.308-12.268,16.96-29.228,16.96-48.855
	c0-4.102-0.244-8.031-0.734-11.789C129.02,538.832,128.744,537.163,128.421,535.528z"/>
</svg>
